<svg xmlns="http://www.w3.org/2000/svg" width="60" height="24" fill="none"><path fill="#000" d="M24 18h-6v6H6v-6H0V0h24v18ZM6 6v3h4.5v9h3V9H18V6H6Z"/><path fill="#0F172A" d="M31.568 18V8.688h-3.392V6.64h9.248v2.048h-3.408V18h-2.448Zm9.553.192c-.875 0-1.638-.181-2.288-.544a3.91 3.91 0 0 1-1.52-1.568c-.363-.672-.544-1.461-.544-2.368 0-.907.181-1.69.544-2.352a3.91 3.91 0 0 1 1.52-1.568c.65-.373 1.413-.56 2.288-.56.874 0 1.637.187 2.288.56.65.373 1.157.896 1.52 1.568.362.661.544 1.445.544 2.352 0 .907-.181 1.696-.544 2.368a3.912 3.912 0 0 1-1.52 1.568c-.65.363-1.413.544-2.288.544Zm0-1.84c.597 0 1.061-.23 1.392-.688.33-.47.496-1.12.496-1.952 0-.832-.166-1.477-.496-1.936-.33-.47-.795-.704-1.392-.704-.598 0-1.062.235-1.392.704-.33.459-.496 1.104-.496 1.936 0 .832.165 1.483.496 1.952.33.459.794.688 1.392.688ZM46.847 18V6.64h2.4v6.304l3.184-3.52h2.88l-3.328 3.536L55.407 18h-2.624l-2.352-3.68-1.184 1.264V18h-2.4Zm9.443 0V9.424h2.4V18h-2.4Zm-.048-9.632v-1.92h2.48v1.92h-2.48Z"/></svg>